<?xml version="1.0" standalone="no"?><!DOCTYPE svg PUBLIC "-//W3C//DTD SVG 1.1//EN" "http://www.w3.org/Graphics/SVG/1.1/DTD/svg11.dtd"><svg t="1529725834324" class="icon" style="" viewBox="0 0 1024 1024" version="1.1" xmlns="http://www.w3.org/2000/svg" p-id="2054" xmlns:xlink="http://www.w3.org/1999/xlink" width="64" height="64"><defs><style type="text/css"></style></defs><path d="M960 85.333333c0-36.266667-27.733333-64-64-64H128C91.733333 21.333333 64 49.066667 64 85.333333v853.333334c0 36.266667 27.733333 64 64 64h768c36.266667 0 64-27.733333 64-64V85.333333zM266.666667 774.4c-23.466667 0-42.666667-19.2-42.666667-42.666667s19.2-42.666667 42.666667-42.666666 42.666667 19.2 42.666666 42.666666-19.2 42.666667-42.666666 42.666667z m0-204.8c-23.466667 0-42.666667-19.2-42.666667-42.666667s19.2-42.666667 42.666667-42.666666 42.666667 19.2 42.666666 42.666666-19.2 42.666667-42.666666 42.666667z m0-206.933333c-23.466667 0-42.666667-19.2-42.666667-42.666667s19.2-42.666667 42.666667-42.666667 42.666667 19.2 42.666666 42.666667-19.2 42.666667-42.666666 42.666667z m505.6 384h-384c-12.8 0-21.333333-10.666667-21.333334-21.333334 0-12.8 8.533333-21.333333 21.333334-21.333333h384c10.666667 0 21.333333 8.533333 21.333333 21.333333 0 10.666667-10.666667 21.333333-21.333333 21.333334z m0-213.333334h-384c-12.8 0-21.333333-10.666667-21.333334-21.333333s8.533333-21.333333 21.333334-21.333333h384c10.666667 0 21.333333 10.666667 21.333333 21.333333s-10.666667 21.333333-21.333333 21.333333z m0-213.333333h-384c-12.8 0-21.333333-8.533333-21.333334-21.333333s8.533333-21.333333 21.333334-21.333334h384c10.666667 0 21.333333 8.533333 21.333333 21.333334s-10.666667 21.333333-21.333333 21.333333z" p-id="2055"></path></svg>